<svg xmlns="http://www.w3.org/2000/svg" viewBox="0 0 24 24" fill="none" stroke="black" stroke-width="1.5" stroke-linecap="round" stroke-linejoin="round">
  <!-- Raven body -->
  <path d="M12 2C8 2 5 5 5 9c0 2 1 3.5 2 4.5C4 15 2 17 2 20h20c0-3-2-5-5-6.5C18 12.5 19 11 19 9c0-4-3-7-7-7z"/>
  
  <!-- Raven head -->
  <circle cx="9" cy="8" r="1.5"/>
  <circle cx="15" cy="8" r="1.5"/>
  
  <!-- Raven beak -->
  <path d="M12 10l-1 2h2l-1-2z"/>
  
  <!-- Raven wings -->
  <path d="M6 12c-1 1-2 2-2 3"/>
  <path d="M18 12c1 1 2 2 2 3"/>
  
  <!-- Raven tail -->
  <path d="M8 18l2 2 2-2 2 2 2-2"/>
  
  <!-- Raven feet -->
  <path d="M10 20l1 1 1-1"/>
  <path d="M12 20l1 1 1-1"/>
</svg>
